<?xml version="1.0" encoding="UTF-8" standalone="no"?>
<!-- Created with Inkscape (http://www.inkscape.org/) -->

<svg
   xmlns:dc="http://purl.org/dc/elements/1.1/"
   xmlns:cc="http://creativecommons.org/ns#"
   xmlns:rdf="http://www.w3.org/1999/02/22-rdf-syntax-ns#"
   xmlns:svg="http://www.w3.org/2000/svg"
   xmlns="http://www.w3.org/2000/svg"
   xmlns:sodipodi="http://sodipodi.sourceforge.net/DTD/sodipodi-0.dtd"
   xmlns:inkscape="http://www.inkscape.org/namespaces/inkscape"
   width="366.69931mm"
   height="110mm"
   viewBox="0 0 366.69931 110"
   version="1.1"
   id="svg8"
   inkscape:version="0.92.5 (2060ec1f9f, 2020-04-08)"
   sodipodi:docname="logo.svg">
  <defs
     id="defs2">
    <inkscape:perspective
       sodipodi:type="inkscape:persp3d"
       inkscape:vp_x="0 : 148.49999 : 1"
       inkscape:vp_y="0 : 999.99995 : 0"
       inkscape:vp_z="210 : 148.49999 : 1"
       inkscape:persp3d-origin="105 : 98.999995 : 1"
       id="perspective826" />
  </defs>
  <sodipodi:namedview
     id="base"
     pagecolor="#ffffff"
     bordercolor="#666666"
     borderopacity="1.0"
     inkscape:pageopacity="0.0"
     inkscape:pageshadow="2"
     inkscape:zoom="0.9819978"
     inkscape:cx="692.97507"
     inkscape:cy="266.78671"
     inkscape:document-units="mm"
     inkscape:current-layer="layer2"
     showgrid="false"
     inkscape:window-width="1920"
     inkscape:window-height="1051"
     inkscape:window-x="3840"
     inkscape:window-y="0"
     inkscape:window-maximized="1" />
  <metadata
     id="metadata5">
    <rdf:RDF>
      <cc:Work
         rdf:about="">
        <dc:format>image/svg+xml</dc:format>
        <dc:type
           rdf:resource="http://purl.org/dc/dcmitype/StillImage" />
        <dc:title></dc:title>
      </cc:Work>
    </rdf:RDF>
  </metadata>
  <g
     inkscape:label="Layer 1"
     inkscape:groupmode="layer"
     id="layer1"
     transform="translate(-58.25008,-174.20166)"
     style="display:inline">
    <flowRoot
       xml:space="preserve"
       id="flowRoot870"
       style="font-style:normal;font-variant:normal;font-weight:bold;font-stretch:normal;font-size:192px;line-height:1;font-family:sans-serif;-inkscape-font-specification:'sans-serif Bold';letter-spacing:0px;word-spacing:2.08999991px;fill:#000000;fill-opacity:1;stroke:none"
       transform="matrix(0.26458333,0,0,0.26458333,-138.11279,60.084524)"><flowRegion
         id="flowRegion872"><rect
           id="rect874"
           width="4569.9302"
           height="1693.0156"
           x="-840.4469"
           y="-650.46686" /></flowRegion><flowPara
         id="flowPara876"></flowPara></flowRoot>    <rect
       style="opacity:0.98000004;fill:#006dae;fill-opacity:1;stroke:none;stroke-width:0.21632637;stroke-linecap:round;stroke-linejoin:round;stroke-miterlimit:4;stroke-dasharray:none;stroke-opacity:0.74660633;paint-order:normal"
       id="rect891"
       width="366.69931"
       height="110"
       x="58.25008"
       y="174.20166" />
    <rect
       style="opacity:0.98000004;fill:#ffffff;fill-opacity:1;stroke:none;stroke-width:0.40000001;stroke-linecap:round;stroke-linejoin:round;stroke-miterlimit:4;stroke-dasharray:none;stroke-opacity:0.74660633;paint-order:normal"
       id="rect893"
       width="100"
       height="100"
       x="319.9494"
       y="179.20166" />
  </g>
  <g
     inkscape:groupmode="layer"
     id="layer2"
     inkscape:label="Layer 2"
     transform="translate(-196.36287,-114.11714)">
    <path
       id="path815"
       d="m 547.88416,163.42567 c 0,-14.39732 -17.42412,-26.06249 -38.90626,-26.06249 -21.48214,0 -38.90624,11.66517 -38.90624,26.06249 0,12.83036 13.83482,23.49109 32.06249,25.64733 v 8.29018 h 13.27233 v -8.23661 c 3.25445,-0.3616 6.37499,-0.99106 9.29464,-1.86161 l 5.37053,10.09822 h 14.99999 l -9.02678,-15.22768 c 7.29911,-4.74108 11.8393,-11.37054 11.8393,-18.70983 z m -62.51785,1.94197 c 0,-9.84376 13.24552,-17.81249 29.57143,-17.81249 16.32587,0 28.37944,5.45088 28.37944,17.81249 0,6.70982 -3.5491,11.38394 -9.41518,14.25 -0.32142,-0.21429 -0.62946,-0.3884 -0.85714,-0.49553 -1.36606,-0.69644 -3.72321,-1.40627 -3.72321,-1.40627 0,0 11.59821,-0.85713 11.59821,-12.41517 0,-11.55804 -12.13392,-11.77232 -12.13392,-11.77232 h -26.65179 v 27.89733 c -9.9241,-2.87947 -16.76784,-8.98661 -16.76784,-16.05804 z m 30.1473,5.12946 v -7.44643 c 7.74108,0 11.75894,-0.91072 11.75894,3.65626 0,4.88838 -5.11607,3.79017 -11.75894,3.79017 z m -0.12053,9.70984 h 3.5625 c 1.44644,0 2.53125,1.56695 3.21429,2.57141 -2.15626,0.25447 -4.41965,0.375 -6.77679,0.38841 z"
       inkscape:connector-curvature="0"
       style="display:inline;fill:#006dae;fill-opacity:1;stroke-width:0.13392855" />
    <text
       xml:space="preserve"
       style="font-style:normal;font-variant:normal;font-weight:bold;font-stretch:normal;font-size:52.32646942px;line-height:1;font-family:sans-serif;-inkscape-font-specification:'sans-serif Bold';letter-spacing:0px;word-spacing:0.5695954px;display:inline;fill:#ffffff;fill-opacity:1;stroke:none;stroke-width:0.27253368"
       x="213.49254"
       y="198.78996"
       id="text834"
       transform="scale(1.0056237,0.99440774)"><tspan
         sodipodi:role="line"
         id="tspan832"
         x="213.49254"
         y="198.78996"
         style="font-style:normal;font-variant:normal;font-weight:bold;font-stretch:normal;font-size:65.77592468px;font-family:sans-serif;-inkscape-font-specification:'sans-serif Bold';fill:#ffffff;fill-opacity:1;stroke-width:0.27253368">LEARN</tspan></text>
  </g>
</svg>
