<?xml version="1.0" encoding="UTF-8" standalone="no"?>
<svg
   xmlns:dc="http://purl.org/dc/elements/1.1/"
   xmlns:cc="http://creativecommons.org/ns#"
   xmlns:rdf="http://www.w3.org/1999/02/22-rdf-syntax-ns#"
   xmlns:svg="http://www.w3.org/2000/svg"
   xmlns="http://www.w3.org/2000/svg"
   id="svg4"
   version="1.1"
   viewBox="0 0 783.6 351.4"
   height="351.4"
   width="783.6">
  <metadata
     id="metadata10">
    <rdf:RDF>
      <cc:Work
         rdf:about="">
        <dc:format>image/svg+xml</dc:format>
        <dc:type
           rdf:resource="http://purl.org/dc/dcmitype/StillImage" />
        <dc:title></dc:title>
      </cc:Work>
    </rdf:RDF>
  </metadata>
  <defs
     id="defs8" />
  <flowRoot
     style="fill:black;fill-opacity:1;stroke:none;font-family:sans-serif;font-style:normal;font-weight:normal;font-size:40px;line-height:1.25;letter-spacing:0px;word-spacing:0px;-inkscape-font-specification:sans-serif;font-stretch:normal;font-variant:normal"
     id="flowRoot817"
     xml:space="preserve"><flowRegion
       id="flowRegion819"><rect
         y="50.229897"
         x="136.89999"
         height="222.3701"
         width="365.05017"
         id="rect821" /></flowRegion><flowPara
       id="flowPara823"></flowPara></flowRoot>  <g
     id="flowRoot825"
     style="font-style:normal;font-variant:normal;font-weight:normal;font-stretch:normal;font-size:160px;line-height:0.89999998;font-family:sans-serif;-inkscape-font-specification:sans-serif;letter-spacing:0px;word-spacing:0px;fill:#000000;fill-opacity:1;stroke:none"
     transform="matrix(1.0820232,-0.11342356,-0.12247472,1.2067432,-11.784872,136.69573)"
     aria-label="LEARN R!">
    <path
       id="path897"
       style="font-style:normal;font-variant:normal;font-weight:bold;font-stretch:normal;font-size:160px;line-height:0.89999998;font-family:'Noto Sans';-inkscape-font-specification:'Noto Sans Bold'"
       d="M 33.919531,128.76948 V 14.529481 h 24.16 v 94.239999 h 46.399999 v 20 z" />
    <path
       id="path899"
       style="font-style:normal;font-variant:normal;font-weight:bold;font-stretch:normal;font-size:160px;line-height:0.89999998;font-family:'Noto Sans';-inkscape-font-specification:'Noto Sans Bold'"
       d="m 190.07931,128.76948 h -65.76 V 14.529481 h 65.76 v 19.84 h -41.6 v 25.12 h 38.72 v 19.84 h -38.72 v 29.439999 h 41.6 z" />
    <path
       id="path901"
       style="font-style:normal;font-variant:normal;font-weight:bold;font-stretch:normal;font-size:160px;line-height:0.89999998;font-family:'Noto Sans';-inkscape-font-specification:'Noto Sans Bold'"
       d="m 283.83923,128.76948 -8.32,-27.2 h -41.6 l -8.32,27.2 h -26.08 l 40.32,-114.719999 h 29.6 l 40.48,114.719999 z m -14.08,-47.519999 -8.32,-26.56 q -0.8,-2.72 -2.08,-6.88 -1.28,-4.16 -2.56,-8.48 -1.28,-4.32 -2.08,-7.52 -0.8,3.2 -2.24,8 -1.28,4.64 -2.56,8.96 -1.12,4.16 -1.76,5.92 l -8.16,26.56 z" />
    <path
       id="path903"
       style="font-style:normal;font-variant:normal;font-weight:bold;font-stretch:normal;font-size:160px;line-height:0.89999998;font-family:'Noto Sans';-inkscape-font-specification:'Noto Sans Bold'"
       d="m 357.59901,14.529481 q 23.36,0 34.4,8.48 11.2,8.48 11.2,25.76 0,7.84 -3.04,13.76 -2.88,5.76 -7.84,9.92 -4.8,4 -10.4,6.56 l 33.6,49.759999 h -26.88 l -27.2,-43.839999 h -12.96 v 43.839999 h -24.16 V 14.529481 Z m -1.76,19.84 h -7.36 v 30.88 h 7.84 q 12,0 17.12,-4 5.28,-4 5.28,-11.84 0,-8.16 -5.6,-11.52 -5.44,-3.52 -17.28,-3.52 z" />
    <path
       id="path905"
       style="font-style:normal;font-variant:normal;font-weight:bold;font-stretch:normal;font-size:160px;line-height:0.89999998;font-family:'Noto Sans';-inkscape-font-specification:'Noto Sans Bold'"
       d="m 531.19898,128.76948 h -30.72 l -49.76,-86.399999 h -0.64 q 0.32,8.16 0.64,16.32 0.48,8.16 0.8,16.32 v 53.759999 h -21.6 V 14.529481 h 30.56 l 49.6,85.599999 h 0.48 q -0.16,-7.999999 -0.48,-15.839999 -0.32,-7.84 -0.64,-15.68 v -54.08 h 21.76 z" />
    <path
       id="path907"
       style="font-style:normal;font-variant:normal;font-weight:bold;font-stretch:normal;font-size:160px;line-height:0.89999998;font-family:'Noto Sans';-inkscape-font-specification:'Noto Sans Bold'"
       d="m 634.87867,14.529481 q 23.36,0 34.4,8.48 11.2,8.48 11.2,25.76 0,7.84 -3.04,13.76 -2.88,5.76 -7.84,9.92 -4.8,4 -10.4,6.56 l 33.6,49.759999 h -26.88 l -27.2,-43.839999 h -12.96 v 43.839999 h -24.16 V 14.529481 Z m -1.76,19.84 h -7.36 v 30.88 h 7.84 q 12,0 17.12,-4 5.28,-4 5.28,-11.84 0,-8.16 -5.6,-11.52 -5.44,-3.52 -17.28,-3.52 z" />
    <path
       id="path909"
       style="font-style:normal;font-variant:normal;font-weight:bold;font-stretch:normal;font-size:160px;line-height:0.89999998;font-family:'Noto Sans';-inkscape-font-specification:'Noto Sans Bold'"
       d="m 725.27865,90.849481 h -19.04 l -4,-76.32 h 27.04 z m -23.36,26.719999 q 0,-7.36 4,-10.24 4,-3.04 9.76,-3.04 5.6,0 9.6,3.04 4,2.88 4,10.24 0,7.04 -4,10.24 -4,3.04 -9.6,3.04 -5.76,0 -9.76,-3.04 -4,-3.2 -4,-10.24 z" />
  </g>
</svg>
