<?xml version="1.0" encoding="UTF-8" standalone="no"?>
<!-- Created with Inkscape (http://www.inkscape.org/) -->

<svg
   version="1.1"
   id="svg2"
   xml:space="preserve"
   width="869.98157"
   height="252.237"
   viewBox="0 0 869.98153 252.237"
   xmlns="http://www.w3.org/2000/svg"
   xmlns:svg="http://www.w3.org/2000/svg"><defs
     id="defs6"><clipPath
       clipPathUnits="userSpaceOnUse"
       id="clipPath16"><path
         d="M 0,344.647 H 808.058 V 0 H 0 Z"
         id="path14" /></clipPath></defs><g
     id="g8"
     transform="matrix(1.3333333,0,0,-1.3333333,-262.67782,458.71644)"><g
       id="g10"
       transform="matrix(0.94334884,0,0,0.94334884,137.92576,86.746332)"><g
         id="g12"
         clip-path="url(#clipPath16)"><g
           id="g18"
           transform="translate(331.1713,174.5354)"><path
             d="m 0,0 v -46.153 c 0,-18.974 -7.788,-27.809 -24.508,-27.809 -19.373,0 -23.441,15.119 -23.441,27.809 V 0 h -5.649 v -46.153 c 0,-21.777 9.787,-32.826 29.09,-32.826 20.013,0 30.158,11.049 30.158,32.826 L 5.65,0 H 5.179 Z"
             style="fill:#000000;fill-opacity:1;fill-rule:nonzero;stroke:none"
             id="path20" /></g><g
           id="g22"
           transform="translate(373.3984,154.4885)"><path
             d="m 0,0 c -8.671,0 -16.19,-4.657 -19.384,-11.718 v 10.435 h -5.007 v -55.834 h 5.007 v 30.167 c 0,13.652 7.561,22.471 19.27,22.471 15.11,0 15.11,-13.143 15.11,-17.464 v -35.174 h 5.009 v 34.43 C 20.005,-16.486 20.005,0 0,0"
             style="fill:#000000;fill-opacity:1;fill-rule:nonzero;stroke:none"
             id="path24" /></g><g
           id="g26"
           transform="translate(405.7978,153.2053)"><path
             d="M 0,0 V -55.834 H 5.012 V 0 H 4.536 Z"
             style="fill:#000000;fill-opacity:1;fill-rule:nonzero;stroke:none"
             id="path28" /></g><g
           id="g30"
           transform="translate(405.7978,170.2844)"><path
             d="M 0,0 V -7.527 H 5.012 V 0 H 4.536 Z"
             style="fill:#000000;fill-opacity:1;fill-rule:nonzero;stroke:none"
             id="path32" /></g><g
           id="g34"
           transform="translate(460.5014,153.2053)"><path
             d="M 0,0 C 0,0 -17.729,-47.893 -18.363,-49.606 -19.033,-47.908 -37.993,0 -37.993,0 h -5.725 l 22.482,-55.834 h 5.668 L 5.505,0 H 4.813 Z"
             style="fill:#000000;fill-opacity:1;fill-rule:nonzero;stroke:none"
             id="path36" /></g><g
           id="g38"
           transform="translate(493.2827,150.01)"><path
             d="M 0,0 C 12.413,0 19.161,-10.611 19.552,-21.254 H -19.623 C -18.595,-10.608 -11.624,0 0,0 m 0,4.479 c -6.488,0 -12.165,-2.288 -16.425,-6.604 -5.392,-5.478 -8.412,-14.062 -8.282,-23.559 -0.121,-8.763 2.585,-16.415 7.629,-21.524 4.322,-4.385 10.229,-6.707 17.078,-6.707 13.413,0 21.998,7.198 24.168,20.256 l 0.097,0.555 h -5.004 l -0.073,-0.391 C 17.29,-43.479 10.114,-49.437 0,-49.437 c -5.278,0 -9.706,1.773 -13.142,5.27 -4.181,4.253 -6.56,10.908 -6.56,18.321 0,0.034 0.002,0.069 0.002,0.114 h 44.287 l 0.024,0.456 c 0.033,0.706 0.05,1.403 0.05,2.093 0,8.542 -2.539,15.886 -7.242,20.808 C 13.082,2.167 7.223,4.479 0,4.479"
             style="fill:#000000;fill-opacity:1;fill-rule:nonzero;stroke:none"
             id="path40" /></g><g
           id="g42"
           transform="translate(531.8725,142.1233)"><path
             d="M 0,0 V 11.082 H -5.004 V -44.752 H 0 v 30.486 c 0.441,8.358 2.229,11.525 6.063,15.467 5.913,5.782 12.796,5.445 14.762,5.202 l 0.537,-0.067 v 5.038 l -0.456,0.018 C 11.752,11.799 2.975,6.867 0,0"
             style="fill:#000000;fill-opacity:1;fill-rule:nonzero;stroke:none"
             id="path44" /></g><g
           id="g46"
           transform="translate(579.6401,128.3215)"><path
             d="m 0,0 c 0.012,-0.008 -1.693,0.358 -1.693,0.358 -8.32,1.766 -16.175,3.428 -16.175,11.241 0,7.442 7.914,10.089 15.323,10.089 5.831,0 15.63,-1.75 15.757,-13.516 l 0.003,-0.467 h 4.999 v 0.467 c 0,11.604 -7.372,17.995 -20.759,17.995 -4.768,0 -20.331,-1.059 -20.331,-14.568 0,-12.158 11.139,-14.412 19.273,-16.056 l 1.446,-0.294 c 8.723,-1.755 16.967,-3.416 16.967,-11.84 0,-10.074 -11.835,-11.157 -16.925,-11.157 -10.146,0 -17.08,6.109 -17.674,15.563 l -0.032,0.453 h -4.991 l 0.011,-0.492 c 0.313,-12.336 9.004,-20.003 22.686,-20.003 5.145,0 21.931,1.132 21.931,15.636 C 19.816,-4.655 10.839,-2.022 0,0"
             style="fill:#000000;fill-opacity:1;fill-rule:nonzero;stroke:none"
             id="path48" /></g><g
           id="g50"
           transform="translate(609.7192,153.2053)"><path
             d="M 0,0 V -55.834 H 5.006 V 0 H 4.532 Z"
             style="fill:#000000;fill-opacity:1;fill-rule:nonzero;stroke:none"
             id="path52" /></g><g
           id="g54"
           transform="translate(636.2885,153.2053)"><path
             d="M 0,0 V 17.079 H -0.472 -5.009 V 0 h -10.137 v -4.479 h 10.137 v -37.845 c -0.012,-0.322 -0.016,-0.642 -0.016,-0.954 0,-4.295 1.052,-7.418 3.218,-9.518 3.325,-3.226 8.803,-3.314 13.212,-3.038 l 0.445,0.033 v 4.455 l -0.489,-0.009 C 6.828,-51.478 3.849,-51.209 2.053,-49.471 0.652,-48.106 0,-45.836 0,-42.324 v 37.845 h 13.933 c 5.488,-13.038 21.158,-50.287 21.273,-50.57 -2.466,-6.985 -3.955,-11.043 -5.481,-12.561 -2.591,-2.602 -5.185,-3.391 -11.088,-3.391 h -0.481 v -4.47 h 0.481 c 6.109,0 10.038,0.172 13.102,2.547 2.365,1.833 4.134,5.75 6.555,11.516 C 38.299,-61.397 62.035,0 62.035,0 h -0.69 -4.922 C 56.423,0 38.755,-47.068 37.94,-49.237 37.069,-47.092 17.886,0 17.886,0 Z"
             style="fill:#000000;fill-opacity:1;fill-rule:nonzero;stroke:none"
             id="path56" /></g><g
           id="g58"
           transform="translate(609.7114,170.2844)"><path
             d="M 0,0 V -7.527 H 5.014 V 0 H 4.54 Z"
             style="fill:#000000;fill-opacity:1;fill-rule:nonzero;stroke:none"
             id="path60" /></g><g
           id="g62"
           transform="translate(405.0908,262.0847)"><path
             d="m 0,0 c -16.917,0 -28.716,-12.462 -28.716,-33.375 0,-25.041 14.884,-36.354 28.947,-36.354 16.921,0 28.145,13.016 28.145,33.606 C 28.599,-14.061 17.152,0 0,0 M -0.795,-74.992 C -22.981,-74.535 -41.634,-57.5 -41.062,-33.95 -40.487,-15.427 -25.604,5.609 1.492,4.805 20.351,4.457 41.522,-9.717 40.951,-35.777 40.38,-61.841 18.292,-75.568 -0.795,-74.992"
             style="fill:#000000;fill-opacity:1;fill-rule:nonzero;stroke:none"
             id="path64" /></g><g
           id="g66"
           transform="translate(730.3237,264.7756)"><path
             d="M 0,0 V 1.099 H -22.177 V 0 c 4.389,-0.291 5.605,-1.153 5.605,-7.385 v -27.06 h -39.789 v 27.06 c 0,6.232 1.21,7.094 5.601,7.385 V 1.099 H -72.938 V 0 c 4.389,-0.291 5.6,-1.153 5.6,-7.385 v -60.763 c 0,-6.243 -1.211,-7.117 -5.6,-7.4 v -1.088 h 22.178 v 1.088 c -4.391,0.283 -5.601,1.157 -5.601,7.4 v 29.013 h 39.789 v -29.013 c 0,-6.243 -1.216,-7.117 -5.605,-7.4 v -1.088 H 0 v 1.088 c -4.389,0.283 -5.604,1.157 -5.604,7.4 v 60.763 c 0,6.232 1.215,7.094 5.604,7.385"
             style="fill:#000000;fill-opacity:1;fill-rule:nonzero;stroke:none"
             id="path68" /></g><g
           id="g70"
           transform="translate(451.9145,265.8743)"><path
             d="m 0,0 v -1.099 c 4.27,-0.229 5.482,-0.695 5.482,-5.189 v -62.959 c 0,-6.243 -1.207,-7.117 -5.599,-7.399 v -1.088 h 16.741 v 1.088 c -4.391,0.282 -5.61,1.156 -5.61,7.399 v 56.559 c 0,-1.025 43.293,-53.7 52.635,-65.046 h 1.787 v 71.446 c 0,4.494 1.211,4.96 5.484,5.189 V 0 H 54.461 v -1.099 c 4.272,-0.229 5.493,-0.695 5.493,-5.189 V -55.682 L 14.792,0 Z"
             style="fill:#000000;fill-opacity:1;fill-rule:nonzero;stroke:none"
             id="path72" /></g><g
           id="g74"
           transform="translate(544.3227,216.1467)"><path
             d="m 0,0 c 5.031,12.347 12.807,32.006 12.807,32.006 0,0 6.97,-17.601 12.92,-32.006 z m 16.667,49.728 h -1.546 c -3.939,-9.342 -22.123,-52.392 -28.46,-67.268 -1.099,-2.546 -2.862,-6.673 -4.177,-8.106 -1.039,-1.101 -2.021,-1.22 -2.944,-1.273 v -1.088 h 14.782 v 1.088 c -1.176,0 -3.713,0.019 -3.894,2.203 -0.013,0.69 0.129,1.443 0.425,2.298 0.459,1.381 3.432,8.922 7.205,17.499 h 29.609 c 2.91,-7.237 5.576,-13.421 6.812,-16.164 0.348,-0.81 1.101,-2.708 1.101,-3.633 0,-2.15 -1.905,-2.203 -4.045,-2.203 v -1.088 h 20.663 v 1.088 c -2.54,0.172 -3.35,0.81 -5.197,5.009 z"
             style="fill:#000000;fill-opacity:1;fill-rule:nonzero;stroke:none"
             id="path76" /></g><g
           id="g78"
           transform="translate(273.5576,265.8743)"><path
             d="m 0,0 v -1.099 c 2.394,-0.133 3.799,-0.358 4.604,-1.299 0.235,-0.37 0.462,-0.746 0.605,-1.152 v -0.008 c 0.143,-0.398 0.191,-0.827 0.221,-1.25 0.04,-0.441 0.061,-0.93 0.061,-1.48 v -62.959 c 0,-6.243 -1.215,-7.117 -5.605,-7.399 v -1.088 h 16.575 v 1.088 c -4.389,0.282 -5.602,1.156 -5.602,7.399 v 53.924 c 0,1.033 -0.228,2.976 -0.228,2.976 l 1.031,-2.976 26.849,-62.124 h 1.631 l 27.425,63.955 0.797,2.634 c 0,0 -0.229,-1.261 -0.229,-2.406 v -55.983 c 0,-6.243 -1.205,-7.117 -5.594,-7.399 v -1.088 h 22.177 v 1.088 c -4.391,0.282 -5.601,1.156 -5.601,7.399 v 62.959 c 0,4.494 1.21,4.96 5.483,5.189 V 0 H 67.341 L 42.535,-58.65 17.38,0 Z"
             style="fill:#000000;fill-opacity:1;fill-rule:nonzero;stroke:none"
             id="path80" /></g><g
           id="g82"
           transform="translate(600.4155,193.364)"><path
             d="m 0,0 c 5.218,-3.137 12.949,-6.426 21.141,-6.398 0.157,0 0.314,0.005 0.468,0.005 12.131,0.175 24.92,9.155 24.92,23.304 0,15.323 -10.748,18.866 -21.608,24.47 C 13.95,46.753 9.373,49.5 9.373,56.7 c 0,4.917 2.975,12.111 12.689,12.111 3.092,0 5.809,-0.784 8.167,-2.02 7.865,-4.366 8.253,-10.546 9.271,-14.467 h 1.146 L 39.979,69.63 c -5.003,2.086 -8.978,3.029 -11.767,3.443 -1.676,0.218 -3.241,0.314 -4.55,0.314 C 12.805,73.387 0,66.87 0,53.157 0,43.782 5.603,37.946 16.692,32.463 c 10.97,-5.599 19.317,-7.781 19.317,-18.752 0,-5.607 -3.196,-15.313 -15.542,-15.313 -4.93,0 -8.856,1.71 -11.962,4.293 C 1.187,9.609 1.354,15.093 0.798,17.141 H -0.343 L 0,0"
             style="fill:#000000;fill-opacity:1;fill-rule:nonzero;stroke:none"
             id="path84" /></g><g
           id="g86"
           transform="translate(98.8544,206.363)"><path
             d="m 0,0 c 0,-3.184 -0.341,-27.787 15.066,-53.212 13.848,-22.959 34.468,-33.064 43.26,-36.254 8.887,3.19 29.496,13.295 43.335,36.254 15.431,25.425 15.063,50.028 15.063,53.212 V 59.839 L 0,59.848 Z"
             style="fill:#006dae;fill-opacity:1;fill-rule:nonzero;stroke:none"
             id="path88" /></g><g
           id="g90"
           transform="translate(222.5615,178.2385)"><path
             d="m 0,0 -0.566,-1.929 c -0.682,-2.305 -1.441,-4.538 -2.235,-6.688 l -5.033,4.526 -0.615,-1.823 c -2.69,-7.94 -6.173,-15.419 -10.39,-22.162 -10.961,-17.549 -26.45,-30.354 -44.668,-37.006 0,0 -1.31,-0.464 -1.874,-0.668 -0.521,0.204 -1.812,0.668 -1.812,0.668 -18.207,6.671 -33.676,19.457 -44.643,37.006 -4.21,6.71 -7.751,14.189 -10.391,22.162 l -0.617,1.823 -1.456,-1.279 -3.557,-3.215 c -0.787,2.147 -1.56,4.348 -2.252,6.656 l -0.558,1.92 -1.481,-1.343 -12.576,-11.343 0.231,-0.763 c 2.978,-9.601 7.893,-19.456 11.541,-26.012 l 0.735,-1.374 5.227,4.676 c 0.197,-0.353 0.362,-0.73 0.577,-1.066 13.025,-20.816 31.466,-36.025 53.327,-44.022 l 7.705,-2.83 7.804,2.83 c 21.863,7.999 40.259,23.206 53.289,44.006 0.205,0.335 0.402,0.729 0.609,1.069 l 5.151,-4.663 0.78,1.374 c 3.636,6.493 8.536,16.275 11.532,26.023 l 0.234,0.752 z"
             style="fill:#006dae;fill-opacity:1;fill-rule:nonzero;stroke:none"
             id="path92" /></g><g
           id="g94"
           transform="translate(205.7778,239.9065)"><path
             d="m 0,0 c 0,-0.825 -0.202,-1.637 -0.544,-2.324 -0.185,-0.424 -0.494,-0.813 -0.854,-1.163 -0.497,-0.22 -0.973,-0.504 -1.389,-0.859 -0.032,0.192 -0.067,0.401 -0.067,0.576 0,0.855 0.182,1.628 0.571,2.333 0.477,0.939 1.29,1.635 2.193,2.147 C -0.055,0.481 0,0.235 0,0"
             style="fill:#ffffff;fill-opacity:1;fill-rule:nonzero;stroke:none"
             id="path96" /></g><g
           id="g98"
           transform="translate(196.2905,224.0896)"><path
             d="M 0,0 V 0 C 1.021,0.146 2.053,-0.066 2.96,-0.532 2.24,-1.294 1.326,-1.809 0.297,-1.964 -0.731,-2.119 -1.788,-1.892 -2.78,-1.443 -1.958,-0.692 -1.036,-0.152 0,0"
             style="fill:#ffffff;fill-opacity:1;fill-rule:nonzero;stroke:none"
             id="path100" /></g><g
           id="g102"
           transform="translate(191.2748,222.5149)"><path
             d="m 0,0 c -0.007,0.077 -0.018,0.152 -0.018,0.232 0,0.973 0.257,1.884 0.753,2.665 L 0.75,2.9 C 1.272,3.736 2.033,4.34 3.007,4.764 3.026,4.669 3.04,4.572 3.04,4.486 3.04,3.527 2.782,2.671 2.297,1.89 1.809,1.005 0.993,0.404 0,0"
             style="fill:#ffffff;fill-opacity:1;fill-rule:nonzero;stroke:none"
             id="path104" /></g><g
           id="g106"
           transform="translate(195.1357,227.9402)"><path
             d="M 0,0 C 0.35,0.606 0.854,1.125 1.461,1.594 1.584,1.125 1.756,0.656 1.756,0.212 c 0,-0.53 -0.084,-1.045 -0.251,-1.544 -0.238,-0.692 -0.67,-1.271 -1.238,-1.812 -0.2,-0.057 -0.418,-0.134 -0.633,-0.22 -0.008,0.049 -0.025,0.089 -0.03,0.138 C 0.021,-2.259 0.154,-1.16 0,0"
             style="fill:#ffffff;fill-opacity:1;fill-rule:nonzero;stroke:none"
             id="path108" /></g><g
           id="g110"
           transform="translate(197.3276,230.4192)"><path
             d="M 0,0 C 0.205,0.693 0.578,1.317 1.076,1.921 1.518,1.134 1.795,0.31 1.795,-0.547 c 0,-0.126 0,-0.26 -0.014,-0.391 C 1.732,-1.675 1.456,-2.339 1.041,-2.989 0.826,-3.104 0.616,-3.235 0.424,-3.375 0.408,-3.338 0.382,-3.292 0.368,-3.252 0.553,-2.184 0.437,-1.102 0,0"
             style="fill:#ffffff;fill-opacity:1;fill-rule:nonzero;stroke:none"
             id="path112" /></g><g
           id="g114"
           transform="translate(198.8715,233.3821)"><path
             d="M 0,0 C 0.036,0.722 0.237,1.391 0.501,2.079 1.229,1.312 1.748,0.441 1.896,-0.535 1.919,-0.761 1.938,-0.981 1.938,-1.2 1.938,-1.708 1.83,-2.193 1.65,-2.685 1.474,-2.856 1.308,-3.026 1.157,-3.212 1.116,-3.169 1.091,-3.132 1.066,-3.089 0.975,-2.009 0.599,-0.981 0,0"
             style="fill:#ffffff;fill-opacity:1;fill-rule:nonzero;stroke:none"
             id="path116" /></g><g
           id="g118"
           transform="translate(199.6015,236.6003)"><path
             d="M 0,0 C -0.069,0.332 -0.11,0.658 -0.11,0.993 -0.11,1.336 0,1.732 0.086,2.113 0.964,1.526 1.677,0.83 2.044,-0.075 2.277,-0.664 2.389,-1.291 2.389,-1.904 2.389,-2.001 2.365,-2.087 2.359,-2.188 2.203,-2.396 2.083,-2.617 1.963,-2.846 1.921,-2.811 1.88,-2.789 1.843,-2.751 1.515,-1.764 0.895,-0.811 0,0"
             style="fill:#ffffff;fill-opacity:1;fill-rule:nonzero;stroke:none"
             id="path120" /></g><g
           id="g122"
           transform="translate(199.6635,239.8406)"><path
             d="M 0,0 C -0.319,0.676 -0.462,1.369 -0.466,2.167 0.516,1.787 1.393,1.217 1.971,0.444 2.389,-0.132 2.652,-0.807 2.775,-1.557 2.684,-1.792 2.614,-2.035 2.559,-2.27 2.499,-2.253 2.46,-2.241 2.407,-2.224 1.859,-1.32 1.019,-0.535 0,0"
             style="fill:#ffffff;fill-opacity:1;fill-rule:nonzero;stroke:none"
             id="path124" /></g><g
           id="g126"
           transform="translate(201.9531,241.4382)"><path
             d="M 0,0 C -0.066,0.005 -0.124,0.017 -0.188,0.029 -0.92,0.776 -1.88,1.331 -2.941,1.649 -3.383,2.202 -3.674,2.851 -3.874,3.587 -2.836,3.464 -1.944,3.138 -1.204,2.493 -0.663,2.044 -0.252,1.403 0.037,0.682 0.008,0.456 0,0.226 0,0"
             style="fill:#ffffff;fill-opacity:1;fill-rule:nonzero;stroke:none"
             id="path128" /></g><g
           id="g130"
           transform="translate(200.6772,245.0857)"><path
             d="m 0,0 c -0.917,0.595 -1.917,0.913 -3.121,0.947 -0.573,0.468 -1.037,1.045 -1.426,1.735 1.069,0.112 2.071,-0.04 2.975,-0.498 0.58,-0.34 1.118,-0.819 1.544,-1.442 C 0,0.503 0.047,0.26 0.104,0.014 0.072,0.008 0.034,0.008 0,0"
             style="fill:#ffffff;fill-opacity:1;fill-rule:nonzero;stroke:none"
             id="path132" /></g><g
           id="g134"
           transform="translate(198.6664,224.7966)"><path
             d="M 0,0 C -0.513,0.149 -1.05,0.235 -1.563,0.238 -0.98,1.062 -0.231,1.758 0.596,2.139 1.562,2.531 2.624,2.548 3.69,2.322 3.092,1.409 2.339,0.701 1.366,0.333 0.899,0.135 0.475,0.035 0,0"
             style="fill:#ffffff;fill-opacity:1;fill-rule:nonzero;stroke:none"
             id="path136" /></g><g
           id="g138"
           transform="translate(201.4687,228.1863)"><path
             d="m 0,0 c -0.549,0.026 -1.093,-0.015 -1.622,-0.134 0.382,0.945 0.944,1.806 1.755,2.373 V 2.25 C 0.956,2.851 1.993,3.158 3.114,3.187 2.732,2.116 2.147,1.2 1.312,0.607 0.907,0.35 0.467,0.152 0,0"
             style="fill:#ffffff;fill-opacity:1;fill-rule:nonzero;stroke:none"
             id="path140" /></g><g
           id="g142"
           transform="translate(204.5395,233.0388)"><path
             d="m 0,0 c -0.322,-0.378 -0.719,-0.69 -1.15,-0.942 -0.526,-0.103 -1.033,-0.261 -1.494,-0.473 0.132,1.009 0.47,1.968 1.113,2.752 0.675,0.736 1.63,1.234 2.605,1.514 C 0.949,1.752 0.668,0.784 0,0"
             style="fill:#ffffff;fill-opacity:1;fill-rule:nonzero;stroke:none"
             id="path144" /></g><g
           id="g146"
           transform="translate(205.0717,243.2937)"><path
             d="m 0,0 c 0,-0.39 -0.048,-0.782 -0.139,-1.16 -0.105,-0.478 -0.322,-0.927 -0.598,-1.337 -0.43,-0.312 -0.814,-0.695 -1.14,-1.133 -0.222,0.606 -0.375,1.173 -0.375,1.78 0,0.392 0.055,0.793 0.153,1.18 0.25,1.002 0.873,1.849 1.693,2.599 C -0.165,1.268 0,0.612 0,0"
             style="fill:#ffffff;fill-opacity:1;fill-rule:nonzero;stroke:none"
             id="path148" /></g><g
           id="g150"
           transform="translate(201.4911,246.5486)"><path
             d="M 0,0 C 0,0.982 0.405,1.963 1.019,2.891 1.63,1.989 2.021,0.993 2.021,-0.02 V -0.038 C 2.021,-0.527 1.906,-1.011 1.752,-1.475 1.412,-1.893 1.137,-2.351 0.916,-2.814 0.356,-1.961 0,-1.028 0,-0.046 Z"
             style="fill:#ffffff;fill-opacity:1;fill-rule:nonzero;stroke:none"
             id="path152" /></g><g
           id="g154"
           transform="translate(199.4243,253.0442)"><path
             d="m 0,0 c 0.821,-0.725 1.437,-1.603 1.673,-2.611 0.074,-0.361 0.129,-0.704 0.129,-1.062 0,-0.109 -0.015,-0.221 -0.027,-0.318 -0.242,-0.515 -0.432,-1.045 -0.522,-1.583 -0.74,0.716 -1.327,1.56 -1.501,2.482 -0.059,0.37 -0.092,0.747 -0.092,1.119 0,0.661 0.117,1.337 0.34,1.973"
             style="fill:#ffffff;fill-opacity:1;fill-rule:nonzero;stroke:none"
             id="path156" /></g><g
           id="g158"
           transform="translate(198.8456,248.4377)"><path
             d="m 0,0 c -0.036,-0.014 -0.086,-0.023 -0.143,-0.04 -1.031,0.358 -2.16,0.427 -3.315,0.195 -0.648,0.315 -1.25,0.787 -1.763,1.334 1.019,0.366 2.054,0.452 3.016,0.22 0.706,-0.183 1.339,-0.53 1.906,-1.027 C -0.204,0.449 -0.097,0.217 0,0"
             style="fill:#ffffff;fill-opacity:1;fill-rule:nonzero;stroke:none"
             id="path160" /></g><g
           id="g162"
           transform="translate(195.6664,255.8328)"><path
             d="M 0,0 C 0.974,-0.513 1.774,-1.22 2.239,-2.17 2.449,-2.588 2.584,-3.021 2.677,-3.464 2.561,-4.017 2.51,-4.569 2.535,-5.13 1.631,-4.592 0.87,-3.911 0.402,-3.046 0.07,-2.368 -0.093,-1.598 -0.093,-0.785 -0.093,-0.515 -0.027,-0.25 0,0"
             style="fill:#ffffff;fill-opacity:1;fill-rule:nonzero;stroke:none"
             id="path164" /></g><g
           id="g166"
           transform="translate(194.5366,253.8342)"><path
             d="m 0,0 c 0.107,-0.086 0.208,-0.184 0.313,-0.277 0.109,-0.41 0.233,-0.782 0.424,-1.152 V -1.44 c 0.195,-0.378 0.447,-0.733 0.73,-1.07 -0.973,0.068 -1.875,0.358 -2.64,0.89 -0.786,0.598 -1.372,1.496 -1.746,2.541 C -1.799,0.911 -0.856,0.599 0,0"
             style="fill:#ffffff;fill-opacity:1;fill-rule:nonzero;stroke:none"
             id="path168" /></g><g
           id="g170"
           transform="translate(180.6826,231.53)"><path
             d="m 0,0 c 0.581,0 1.097,-0.518 1.097,-1.168 0,-0.18 -0.071,-0.366 -0.128,-0.47 C 0.87,-1.844 0.802,-2.082 1.234,-2.082 h 1.57 v 19.826 c 0,2.719 0.215,5.923 1.774,9.078 l 0.451,0.884 0.449,-0.884 C 6.967,23.635 7.184,20.443 7.184,17.744 V -2.082 h 1.561 c 0.439,0 0.366,0.238 0.263,0.444 -0.055,0.104 -0.118,0.29 -0.118,0.47 0,0.65 0.524,1.168 1.173,1.168 0.663,0 1.181,-0.567 1.181,-1.205 0,-0.816 -0.627,-1.655 -2.095,-1.655 H 6.564 c 0.375,-0.973 0.596,-2.324 0.596,-3.77 0,-1.858 -0.362,-3.468 -0.854,-4.484 1.908,0.307 3.402,0.782 4.754,1.527 l 0.127,0.08 0.357,-0.848 -0.098,-0.057 c -1.217,-0.681 -2.458,-0.982 -3.932,-1.332 0,0 -1.056,-0.196 -1.779,-0.325 0.203,-0.19 0.307,-0.453 0.307,-0.768 0,-0.584 -0.454,-1.05 -1.07,-1.05 -0.594,0 -1.091,0.466 -1.091,1.05 0,0.315 0.141,0.578 0.329,0.768 -0.774,0.134 -1.879,0.325 -1.913,0.325 -1.413,0.35 -2.557,0.651 -3.789,1.332 l -0.1,0.057 0.374,0.848 0.116,-0.08 c 1.388,-0.75 2.865,-1.234 4.852,-1.544 -0.57,1.019 -0.932,2.634 -0.932,4.501 0,1.446 0.222,2.797 0.594,3.77 H 0.827 c -1.38,0 -2.021,0.856 -2.021,1.655 C -1.194,-0.567 -0.651,0 0,0"
             style="fill:#ffffff;fill-opacity:1;fill-rule:nonzero;stroke:none"
             id="path172" /></g><g
           id="g174"
           transform="translate(176.6113,224.7249)"><path
             d="m 0,0 c -0.008,-0.06 -0.014,-0.1 -0.03,-0.148 -0.205,0.086 -0.412,0.162 -0.641,0.22 -0.553,0.544 -0.952,1.119 -1.148,1.818 -0.161,0.492 -0.253,1.007 -0.253,1.537 0,0.444 0.167,0.913 0.285,1.386 C -1.249,4.346 -0.745,3.822 -0.395,3.215 -0.559,2.056 -0.414,0.957 0,0"
             style="fill:#ffffff;fill-opacity:1;fill-rule:nonzero;stroke:none"
             id="path176" /></g><g
           id="g178"
           transform="translate(173.8793,246.033)"><path
             d="m 0,0 c -1.198,-0.026 -2.282,-0.352 -3.189,-0.947 -0.042,0.008 -0.078,0.008 -0.123,0.014 0.069,0.246 0.116,0.489 0.143,0.727 0.436,0.624 0.964,1.102 1.613,1.442 0.902,0.462 1.915,0.613 2.898,0.508 C 1.004,1.045 0.562,0.467 0,0"
             style="fill:#ffffff;fill-opacity:1;fill-rule:nonzero;stroke:none"
             id="path180" /></g><g
           id="g182"
           transform="translate(173.7538,227.1672)"><path
             d="m 0,0 c -0.024,-0.041 -0.047,-0.086 -0.066,-0.124 -0.203,0.141 -0.398,0.272 -0.614,0.393 -0.413,0.644 -0.688,1.308 -0.756,2.052 -0.011,0.136 -0.02,0.258 -0.02,0.389 0,0.852 0.289,1.676 0.721,2.463 C -0.221,4.569 0.153,3.948 0.343,3.252 -0.09,2.15 -0.197,1.068 0,0"
             style="fill:#ffffff;fill-opacity:1;fill-rule:nonzero;stroke:none"
             id="path184" /></g><g
           id="g186"
           transform="translate(170.5912,232.8469)"><path
             d="M 0,0 C 0.15,0.976 0.675,1.847 1.388,2.614 1.727,1.926 1.949,1.257 1.971,0.538 1.302,-0.446 0.911,-1.474 0.832,-2.554 0.801,-2.597 0.773,-2.634 0.739,-2.677 0.58,-2.491 0.414,-2.321 0.236,-2.149 c -0.167,0.491 -0.285,0.976 -0.285,1.484 0,0.219 0.018,0.439 0.049,0.665"
             style="fill:#ffffff;fill-opacity:1;fill-rule:nonzero;stroke:none"
             id="path188" /></g><g
           id="g190"
           transform="translate(169.9062,233.8489)"><path
             d="m 0,0 c -0.027,-0.035 -0.069,-0.06 -0.12,-0.095 -0.109,0.229 -0.243,0.45 -0.375,0.673 -0.018,0.086 -0.047,0.174 -0.047,0.27 0,0.612 0.115,1.239 0.351,1.829 C 0.169,3.582 0.887,4.286 1.76,4.864 1.833,4.483 1.952,4.088 1.952,3.744 1.952,3.41 1.913,3.083 1.833,2.751 0.955,1.944 0.337,0.988 0,0"
             style="fill:#ffffff;fill-opacity:1;fill-rule:nonzero;stroke:none"
             id="path192" /></g><g
           id="g194"
           transform="translate(170.6245,243.9314)"><path
             d="M 0,0 C 0.718,0.645 1.682,0.971 2.743,1.094 2.527,0.358 2.233,-0.292 1.796,-0.835 0.656,-1.162 -0.292,-1.717 -1.04,-2.464 c -0.062,-0.003 -0.117,-0.024 -0.165,-0.029 0,0.226 -0.019,0.455 -0.038,0.681 C -0.978,-1.082 -0.56,-0.449 0,0"
             style="fill:#ffffff;fill-opacity:1;fill-rule:nonzero;stroke:none"
             id="path196" /></g><g
           id="g198"
           transform="translate(169.7314,240.2844)"><path
             d="M 0,0 C 0.566,0.773 1.431,1.343 2.452,1.724 2.444,0.934 2.279,0.232 1.959,-0.43 0.933,-0.979 0.106,-1.764 -0.455,-2.663 -0.503,-2.685 -0.553,-2.697 -0.581,-2.714 -0.632,-2.479 -0.704,-2.236 -0.786,-2.001 -0.679,-1.251 -0.43,-0.576 0,0"
             style="fill:#ffffff;fill-opacity:1;fill-rule:nonzero;stroke:none"
             id="path200" /></g><g
           id="g202"
           transform="translate(169.4628,231.6243)"><path
             d="M 0,0 C -0.438,0.212 -0.885,0.37 -1.406,0.472 -1.847,0.725 -2.235,1.037 -2.569,1.417 -3.25,2.199 -3.604,3.167 -3.729,4.266 -2.658,3.985 -1.707,3.49 -1.04,2.751 -0.448,1.967 -0.138,1.008 0,0"
             style="fill:#ffffff;fill-opacity:1;fill-rule:nonzero;stroke:none"
             id="path204" /></g><g
           id="g206"
           transform="translate(169.7582,230.4363)"><path
             d="M 0,0 0.006,-0.011 C 0.81,-0.578 1.361,-1.434 1.751,-2.384 1.226,-2.265 0.68,-2.224 0.123,-2.25 -0.338,-2.098 -0.751,-1.9 -1.114,-1.635 -1.943,-1.05 -2.53,-0.134 -2.898,0.937 -1.781,0.911 -0.805,0.604 0,0"
             style="fill:#ffffff;fill-opacity:1;fill-rule:nonzero;stroke:none"
             id="path208" /></g><g
           id="g210"
           transform="translate(172.0849,226.9353)"><path
             d="M 0,0 V 0 C 0.916,-0.381 1.669,-1.076 2.252,-1.901 1.72,-1.904 1.205,-1.99 0.687,-2.139 c -0.498,0.035 -0.99,0.135 -1.45,0.333 -0.974,0.369 -1.73,1.076 -2.297,1.99 C -2.02,0.413 -0.966,0.392 0,0"
             style="fill:#ffffff;fill-opacity:1;fill-rule:nonzero;stroke:none"
             id="path212" /></g><g
           id="g214"
           transform="translate(175.0922,224.0896)"><path
             d="m 0,0 h 0.008 c 1.001,-0.152 1.921,-0.692 2.731,-1.443 -0.98,-0.441 -2.027,-0.676 -3.003,-0.521 -1,0.155 -1.922,0.67 -2.732,1.432 1,0.466 2.028,0.678 2.996,0.532"
             style="fill:#ffffff;fill-opacity:1;fill-rule:nonzero;stroke:none"
             id="path216" /></g><g
           id="g218"
           transform="translate(177.7817,224.4045)"><path
             d="m 0,0 c -0.479,0.782 -0.735,1.637 -0.735,2.596 0,0.095 0.023,0.184 0.025,0.279 C 0.271,2.45 1.096,1.847 1.649,1.011 V 1.007 c 0.49,-0.773 0.74,-1.692 0.74,-2.665 0,-0.079 -0.006,-0.154 -0.006,-0.232 C 1.382,-1.486 0.547,-0.885 0,0"
             style="fill:#ffffff;fill-opacity:1;fill-rule:nonzero;stroke:none"
             id="path220" /></g><g
           id="g222"
           transform="translate(176.0932,252.4055)"><path
             d="M 0,0 C 0.174,0.37 0.308,0.742 0.406,1.151 0.51,1.245 0.616,1.343 0.732,1.429 1.586,2.03 2.612,2.339 3.722,2.35 3.34,1.305 2.757,0.407 1.9,-0.191 1.13,-0.721 0.236,-1.01 -0.74,-1.082 c 0.267,0.338 0.525,0.693 0.73,1.07 z"
             style="fill:#ffffff;fill-opacity:1;fill-rule:nonzero;stroke:none"
             id="path224" /></g><g
           id="g226"
           transform="translate(173.5331,253.6624)"><path
             d="M 0,0 C 0.462,0.957 1.259,1.658 2.161,2.17 2.193,1.921 2.259,1.655 2.259,1.386 2.259,0.573 2.081,-0.198 1.737,-0.876 1.34,-1.741 0.616,-2.422 -0.294,-2.96 -0.263,-2.399 -0.312,-1.846 -0.43,-1.293 -0.351,-0.85 -0.209,-0.418 0,0"
             style="fill:#ffffff;fill-opacity:1;fill-rule:nonzero;stroke:none"
             id="path228" /></g><g
           id="g230"
           transform="translate(172.8774,249.1194)"><path
             d="M 0,0 C 0.565,0.498 1.197,0.845 1.915,1.027 2.817,1.26 3.832,1.174 4.839,0.807 4.335,0.261 3.734,-0.212 3.087,-0.527 c -1.1,0.235 -2.205,0.163 -3.237,-0.195 -0.046,0.017 -0.091,0.026 -0.14,0.04 0.119,0.218 0.199,0.45 0.29,0.682"
             style="fill:#ffffff;fill-opacity:1;fill-rule:nonzero;stroke:none"
             id="path232" /></g><g
           id="g234"
           transform="translate(170.2597,250.4363)"><path
             d="M 0,0 C 0.227,1.005 0.843,1.895 1.67,2.608 1.916,1.972 2.088,1.296 2.088,0.635 2.088,0.263 2.059,-0.114 1.965,-0.484 1.744,-1.406 1.174,-2.242 0.424,-2.966 c -0.099,0.538 -0.288,1.068 -0.534,1.583 -0.014,0.097 -0.014,0.22 -0.014,0.318 0,0.357 0.04,0.701 0.124,1.065"
             style="fill:#ffffff;fill-opacity:1;fill-rule:nonzero;stroke:none"
             id="path236" /></g><g
           id="g238"
           transform="translate(167.9321,246.5286)"><path
             d="M 0,0 C 0,1.013 0.377,2.009 0.952,2.911 1.536,1.983 1.925,1.007 1.925,0.02 v -0.046 c 0,-0.982 -0.353,-1.915 -0.881,-2.768 -0.189,0.463 -0.44,0.921 -0.779,1.339 C 0.099,-0.991 0,-0.507 0,-0.018 Z"
             style="fill:#ffffff;fill-opacity:1;fill-rule:nonzero;stroke:none"
             id="path240" /></g><g
           id="g242"
           transform="translate(166.7617,245.2224)"><path
             d="m 0,0 c 0.828,-0.75 1.449,-1.597 1.711,-2.599 0.093,-0.386 0.137,-0.787 0.137,-1.18 0,-0.606 -0.147,-1.174 -0.358,-1.78 -0.32,0.438 -0.723,0.833 -1.149,1.133 -0.269,0.41 -0.483,0.859 -0.608,1.338 -0.096,0.378 -0.147,0.769 -0.147,1.159 0,0.613 0.174,1.277 0.414,1.929"
             style="fill:#ffffff;fill-opacity:1;fill-rule:nonzero;stroke:none"
             id="path244" /></g><g
           id="g246"
           transform="translate(165.6786,240.6169)"><path
             d="m 0,0 c 0.973,-0.504 1.789,-1.208 2.272,-2.147 0.371,-0.705 0.561,-1.478 0.561,-2.333 0,-0.175 -0.039,-0.384 -0.063,-0.567 -0.424,0.346 -0.895,0.638 -1.399,0.85 -0.358,0.349 -0.657,0.739 -0.886,1.162 -0.397,0.687 -0.578,1.5 -0.578,2.325 0,0.234 0.058,0.481 0.093,0.71"
             style="fill:#ffffff;fill-opacity:1;fill-rule:nonzero;stroke:none"
             id="path248" /></g><g
           id="g250"
           transform="translate(186.9399,249.2737)"><path
             d="M 0,0 C 0,2.253 -0.215,4.864 -1.229,7.48 V -18.614 H 0 Z"
             style="fill:#006dae;fill-opacity:1;fill-rule:nonzero;stroke:none"
             id="path252" /></g><g
           id="g254"
           transform="translate(137.812,227.9255)"><path
             d="m 0,0 c 2.069,-0.543 4.288,-1.085 6.475,-0.93 v 26.836 0.564 c -2.348,-0.146 -4.649,0.418 -6.799,0.982 -1.924,0.469 -3.751,0.927 -5.361,0.853 -2.292,-0.069 -3.505,-0.73 -4.285,-1.414 V 25.906 -0.263 c 1.164,0.741 2.505,1.105 4.243,1.156 C -3.93,0.965 -2.033,0.513 0,0"
             style="fill:#ffffff;fill-opacity:1;fill-rule:nonzero;stroke:none"
             id="path256" /></g><g
           id="g258"
           transform="translate(122.332,228.8186)"><path
             d="m 0,0 c 1.732,-0.051 3.071,-0.415 4.226,-1.159 v 26.172 0.985 c -0.792,0.71 -1.984,1.345 -4.276,1.414 -1.657,0.074 -3.433,-0.384 -5.361,-0.853 -2.184,-0.564 -4.432,-1.128 -6.783,-0.982 V 25.013 -1.823 c 2.173,-0.155 4.358,0.386 6.463,0.93 C -3.708,-0.38 -1.825,0.072 0,0"
             style="fill:#ffffff;fill-opacity:1;fill-rule:nonzero;stroke:none"
             id="path260" /></g><g
           id="g262"
           transform="translate(147.7309,253.8313)"><path
             d="m 0,0 h -1.758 l 0.149,-0.612 c 0.017,-0.046 0.026,-0.135 0.026,-0.189 V -29 c -1.382,0 -16.631,0.031 -17.48,0.031 -0.313,-0.532 -0.697,-0.627 -1.502,-0.627 -0.737,0 -1.062,0.095 -1.378,0.627 -0.778,0 -14.817,-0.031 -17.566,-0.031 v 28.199 c 0,0.054 0,0.143 0.016,0.197 L -39.339,0 h -2.369 v -31.196 h 18.84 c 0.393,-0.747 1.216,-1.36 2.303,-1.36 1.164,0 1.983,0.613 2.389,1.36 H 0.667 V 0 Z"
             style="fill:#ffffff;fill-opacity:1;fill-rule:nonzero;stroke:none"
             id="path264" /></g><g
           id="g266"
           transform="translate(132.0849,249.6428)"><path
             d="m 0,0 c -1.001,-0.037 -1.861,-0.18 -2.64,-0.427 v -1.399 c 0.687,0.258 1.538,0.458 2.682,0.504 1.607,0.048 3.425,-0.41 5.337,-0.897 1.625,-0.429 3.338,-0.827 5.101,-0.959 v 1.295 C 8.86,-1.751 7.227,-1.351 5.717,-0.933 3.688,-0.427 1.784,0.058 0,0"
             style="fill:#006dae;fill-opacity:1;fill-rule:nonzero;stroke:none"
             id="path268" /></g><g
           id="g270"
           transform="translate(132.0849,233.7429)"><path
             d="m 0,0 c -1.001,-0.029 -1.861,-0.172 -2.64,-0.421 v -1.403 c 0.687,0.272 1.538,0.47 2.682,0.49 1.597,0.078 3.419,-0.389 5.335,-0.862 1.614,-0.42 3.33,-0.842 5.103,-0.964 v 1.288 C 8.852,-1.757 7.221,-1.351 5.702,-0.934 3.688,-0.433 1.784,0.061 0,0"
             style="fill:#006dae;fill-opacity:1;fill-rule:nonzero;stroke:none"
             id="path272" /></g><g
           id="g274"
           transform="translate(132.0849,236.9319)"><path
             d="M 0,0 C -1.001,-0.037 -1.861,-0.177 -2.64,-0.417 V -1.83 c 0.685,0.27 1.538,0.47 2.682,0.508 1.61,0.06 3.425,-0.41 5.35,-0.885 1.612,-0.412 3.329,-0.847 5.088,-0.959 v 1.283 C 8.86,-1.758 7.227,-1.339 5.723,-0.933 3.694,-0.417 1.797,0.075 0,0"
             style="fill:#006dae;fill-opacity:1;fill-rule:nonzero;stroke:none"
             id="path276" /></g><g
           id="g278"
           transform="translate(132.0849,246.4651)"><path
             d="M 0,0 C -1.001,-0.034 -1.861,-0.172 -2.64,-0.417 V -1.82 c 0.685,0.257 1.538,0.455 2.682,0.498 1.597,0.054 3.408,-0.396 5.325,-0.89 1.619,-0.43 3.34,-0.825 5.113,-0.959 v 1.294 C 8.852,-1.754 7.209,-1.336 5.692,-0.936 3.676,-0.417 1.784,0.069 0,0"
             style="fill:#006dae;fill-opacity:1;fill-rule:nonzero;stroke:none"
             id="path280" /></g><g
           id="g282"
           transform="translate(132.0849,240.0872)"><path
             d="m 0,0 c -1.001,-0.012 -1.861,-0.138 -2.64,-0.378 v -1.403 c 0.681,0.258 1.525,0.447 2.67,0.464 1.609,0.051 3.42,-0.398 5.329,-0.887 1.617,-0.387 3.348,-0.837 5.121,-0.951 V -1.87 C 8.843,-1.744 7.206,-1.334 5.678,-0.928 3.67,-0.418 1.784,0.063 0,0"
             style="fill:#006dae;fill-opacity:1;fill-rule:nonzero;stroke:none"
             id="path284" /></g><g
           id="g286"
           transform="translate(137.8022,251.8962)"><path
             d="M 0,0 C -2.029,0.507 -3.933,0.956 -5.717,0.902 -6.719,0.879 -7.578,0.745 -8.357,0.507 v -1.406 c 0.685,0.266 1.538,0.463 2.682,0.501 1.607,0.06 3.425,-0.395 5.337,-0.885 C 1.287,-1.721 3,-2.13 4.763,-2.236 v 1.288 C 3.143,-0.816 1.51,-0.418 0,0"
             style="fill:#006dae;fill-opacity:1;fill-rule:nonzero;stroke:none"
             id="path288" /></g><g
           id="g290"
           transform="translate(116.622,235.9846)"><path
             d="M 0,0 C -1.584,-0.392 -3.153,-0.811 -4.792,-0.936 V -2.23 c 1.788,0.123 3.43,0.553 5.117,0.97 1.923,0.475 3.678,0.942 5.337,0.885 1.147,-0.038 2.018,-0.226 2.699,-0.503 V 0.53 C 7.572,0.77 6.712,0.911 5.71,0.947 3.885,1.007 2.025,0.53 0,0"
             style="fill:#006dae;fill-opacity:1;fill-rule:nonzero;stroke:none"
             id="path292" /></g><g
           id="g294"
           transform="translate(116.6577,239.1594)"><path
             d="m 0,0 c -1.604,-0.407 -3.179,-0.816 -4.827,-0.951 v -1.277 c 1.798,0.115 3.445,0.565 5.148,0.952 1.904,0.489 3.666,0.938 5.305,0.887 1.147,-0.018 2.019,-0.207 2.7,-0.476 v 1.4 C 7.537,0.776 6.67,0.916 5.674,0.928 3.863,0.991 2.004,0.509 0,0"
             style="fill:#006dae;fill-opacity:1;fill-rule:nonzero;stroke:none"
             id="path296" /></g><g
           id="g298"
           transform="translate(132.0849,243.282)"><path
             d="m 0,0 c -1.001,-0.031 -1.861,-0.172 -2.64,-0.418 v -1.4 c 0.685,0.249 1.538,0.456 2.682,0.489 1.61,0.063 3.425,-0.391 5.35,-0.896 1.612,-0.403 3.329,-0.81 5.088,-0.944 v 1.282 C 8.86,-1.758 7.227,-1.343 5.717,-0.933 3.694,-0.418 1.797,0.065 0,0"
             style="fill:#006dae;fill-opacity:1;fill-rule:nonzero;stroke:none"
             id="path300" /></g><g
           id="g302"
           transform="translate(116.6264,232.804)"><path
             d="M 0,0 C -1.585,-0.412 -3.157,-0.818 -4.796,-0.933 V -2.23 c 1.787,0.124 3.433,0.553 5.117,0.973 1.922,0.473 3.678,0.94 5.336,0.862 1.147,-0.02 2.009,-0.212 2.7,-0.484 V 0.518 C 7.568,0.767 6.702,0.91 5.706,0.939 3.88,1 2.021,0.506 0,0"
             style="fill:#006dae;fill-opacity:1;fill-rule:nonzero;stroke:none"
             id="path304" /></g><g
           id="g306"
           transform="translate(116.6161,251.8962)"><path
             d="m 0,0 c -1.578,-0.418 -3.147,-0.825 -4.786,-0.948 v -1.288 c 1.777,0.106 3.43,0.515 5.117,0.953 1.922,0.49 3.678,0.945 5.336,0.885 1.147,-0.046 2.019,-0.235 2.7,-0.501 V 0.498 C 7.578,0.745 6.718,0.879 5.736,0.902 3.891,0.956 2.02,0.507 0,0"
             style="fill:#006dae;fill-opacity:1;fill-rule:nonzero;stroke:none"
             id="path308" /></g><g
           id="g310"
           transform="translate(116.6161,248.7097)"><path
             d="m 0,0 c -1.578,-0.417 -3.147,-0.828 -4.786,-0.95 v -1.295 c 1.777,0.132 3.43,0.518 5.117,0.959 1.922,0.487 3.678,0.945 5.336,0.897 1.147,-0.046 2.009,-0.238 2.7,-0.504 V 0.506 C 7.578,0.753 6.712,0.896 5.716,0.933 3.891,0.991 2.02,0.506 0,0"
             style="fill:#006dae;fill-opacity:1;fill-rule:nonzero;stroke:none"
             id="path312" /></g><g
           id="g314"
           transform="translate(116.622,242.3489)"><path
             d="m 0,0 c -1.584,-0.41 -3.153,-0.825 -4.792,-0.948 v -1.277 c 1.788,0.123 3.43,0.53 5.117,0.945 1.923,0.493 3.678,0.947 5.337,0.884 1.147,-0.033 2.018,-0.231 2.699,-0.489 V 0.506 C 7.572,0.761 6.712,0.902 5.73,0.933 3.885,0.999 2.025,0.515 0,0"
             style="fill:#006dae;fill-opacity:1;fill-rule:nonzero;stroke:none"
             id="path316" /></g><g
           id="g318"
           transform="translate(116.6577,245.5295)"><path
             d="m 0,0 c -1.609,-0.41 -3.188,-0.819 -4.827,-0.948 v -1.288 c 1.798,0.123 3.445,0.53 5.148,0.959 1.904,0.495 3.666,0.945 5.305,0.89 1.147,-0.043 2.019,-0.235 2.7,-0.487 V 0.518 C 7.537,0.764 6.676,0.902 5.694,0.936 3.863,1.004 2.004,0.518 0,0"
             style="fill:#006dae;fill-opacity:1;fill-rule:nonzero;stroke:none"
             id="path320" /></g><g
           id="g322"
           transform="translate(141.0541,156.8977)"><path
             d="M 0,0 -0.059,-4.023 -3.228,-1.538 -6.489,-4.023 -6.562,0 l -3.896,1.003 3.092,2.555 -1.655,3.688 3.942,-0.814 1.851,3.601 1.761,-3.601 4.022,0.814 -1.72,-3.688 3.089,-2.555 z"
             style="fill:#ffffff;fill-opacity:1;fill-rule:nonzero;stroke:none"
             id="path324" /></g><g
           id="g326"
           transform="translate(163.0829,128.509)"><path
             d="M 0,0 -4,1.511 -5.78,-2.416 -7.51,1.511 -11.565,0 l 1.51,4.032 -3.884,1.832 3.884,1.762 -1.51,4.07 4.055,-1.512 1.73,3.941 L -4,10.184 0,11.696 -1.451,7.626 2.408,5.851 -1.451,4.032 Z"
             style="fill:#ffffff;fill-opacity:1;fill-rule:nonzero;stroke:none"
             id="path328" /></g><g
           id="g330"
           transform="translate(151.4042,182.5789)"><path
             d="M 0,0 4.002,-0.839 5.776,2.774 7.618,-0.839 11.591,0 9.928,-3.676 l 3.083,-2.599 -3.907,-0.963 -0.08,-4.054 -3.248,2.469 -3.163,-2.469 -0.071,4.054 -3.908,0.963 3.095,2.599 z"
             style="fill:#ffffff;fill-opacity:1;fill-rule:nonzero;stroke:none"
             id="path332" /></g><g
           id="g334"
           transform="translate(167.4057,149.9055)"><path
             d="M 0,0 -3.144,1.563 -6.204,0 -5.637,3.45 -8.129,5.906 -4.686,6.452 -3.144,9.53 -1.525,6.452 1.862,5.906 -0.534,3.45 Z"
             style="fill:#ffffff;fill-opacity:1;fill-rule:nonzero;stroke:none"
             id="path336" /></g><g
           id="g338"
           transform="translate(180.142,162.5823)"><path
             d="M 0,0 -3.594,0.046 -5.293,-3.032 -7.031,0.046 -10.62,0 -8.777,3.042 -10.62,6.106 -7.031,6.043 -5.293,9.146 -3.594,6.043 0,6.106 -1.848,3.042 Z"
             style="fill:#ffffff;fill-opacity:1;fill-rule:nonzero;stroke:none"
             id="path340" /></g><g
           id="g342"
           transform="translate(157.1806,200.2253)"><path
             d="m 0,0 44.503,-39.917 c 2.909,5.563 5.022,11.02 6.68,16.192 L 0,22.227 -51.077,-23.725 c 1.631,-5.172 3.749,-10.629 6.672,-16.192 z"
             style="fill:#ffffff;fill-opacity:1;fill-rule:nonzero;stroke:none"
             id="path344" /></g><g
           id="g346"
           transform="translate(226.2089,146.8391)"><path
             d="m 0,0 2.405,14.86 -6.888,6.179 c 0.724,1.918 1.42,3.851 1.969,5.889 2.06,-1.864 9.018,-8.102 10.013,-8.976 C 5.445,11.615 2.691,5.351 0,0"
             style="fill:#ffffff;fill-opacity:1;fill-rule:nonzero;stroke:none"
             id="path348" /></g><g
           id="g350"
           transform="translate(222.8803,141.8811)"><path
             d="m 0,0 c -0.674,0.609 -1.626,1.468 -2.72,2.425 0.013,0.022 0.025,0.037 0.025,0.052 1.567,2.664 3.058,5.379 4.361,8.212 z"
             style="fill:#ffffff;fill-opacity:1;fill-rule:nonzero;stroke:none"
             id="path352" /></g><g
           id="g354"
           transform="translate(80.7392,164.7913)"><path
             d="m 0,0 c 0.985,0.874 7.959,7.123 9.958,8.976 0.63,-2.05 1.326,-3.962 2.043,-5.87 L 5.103,-3.092 7.492,-17.914 C 4.786,-12.544 2.036,-6.277 0,0"
             style="fill:#ffffff;fill-opacity:1;fill-rule:nonzero;stroke:none"
             id="path356" /></g><g
           id="g358"
           transform="translate(91.5351,141.8811)"><path
             d="M 0,0 -1.646,10.719 C -0.332,7.881 1.169,5.141 2.76,2.447 1.69,1.501 0.672,0.599 0,0"
             style="fill:#ffffff;fill-opacity:1;fill-rule:nonzero;stroke:none"
             id="path360" /></g><g
           id="g362"
           transform="translate(216.1752,142.3391)"><path
             d="m 0,0 c -12.754,-20.32 -30.747,-35.182 -52.069,-42.994 0,0 -6.144,-2.224 -6.926,-2.522 -0.692,0.298 -6.841,2.532 -6.841,2.532 -21.313,7.797 -39.306,22.664 -52.078,42.999 -3.632,5.838 -6.776,12.158 -9.339,18.701 1.102,0.983 7.731,6.977 9.7,8.741 2.677,-7.52 5.946,-14.587 9.969,-20.97 11.322,-18.024 27.147,-31.185 45.911,-38.048 0.013,0 2.678,-0.963 2.678,-0.963 l 2.763,0.963 c 18.76,6.855 34.603,20.024 45.868,38.048 4.077,6.41 7.348,13.478 10.019,20.97 C 1.56,25.693 8.24,19.699 9.352,18.716 6.737,12.078 3.585,5.76 0,0"
             style="fill:#ffffff;fill-opacity:1;fill-rule:nonzero;stroke:none"
             id="path364" /></g><g
           id="g366"
           transform="translate(99.9321,151.5803)"><path
             d="M 0,0 2.791,0.575 2.804,0.553 0.883,-1.571 Z M 2.417,-2.558 4.438,-0.316 4.266,0.365 C 3.879,0.733 3.512,1.102 3.144,1.523 1.054,1.15 -2.249,0.622 -3.729,0.553 l -0.394,0.448 -0.391,-0.22 c 0.207,-0.344 0.391,-0.692 0.577,-1.04 0.219,-0.409 0.428,-0.837 0.643,-1.245 l 0.38,0.23 -0.17,0.601 2.181,0.501 1.166,-2.053 c -0.399,-0.504 -1.13,-1.218 -1.567,-1.637 l -0.424,0.495 -0.418,-0.232 c 0.289,-0.506 0.59,-0.999 0.885,-1.511 0.26,-0.476 0.534,-0.982 0.794,-1.483 l 0.423,0.243 -0.202,0.601 c 0.393,0.563 1.706,2.096 2.663,3.191"
             style="fill:#006dae;fill-opacity:1;fill-rule:nonzero;stroke:none"
             id="path368" /></g><g
           id="g370"
           transform="translate(112.2851,138.5579)"><path
             d="m 0,0 0.389,0.286 c -0.266,0.349 -0.543,0.695 -0.795,1.045 -0.262,0.35 -0.497,0.709 -0.74,1.066 l -0.406,-0.274 0.301,-0.62 c -1.014,-0.837 -3.644,-2.8 -3.644,-2.8 l -0.018,0.011 C -4.25,0.562 -3.47,2.696 -2.78,4.619 -3.022,4.949 -3.265,5.244 -3.5,5.576 -3.722,5.902 -3.923,6.229 -4.139,6.572 L -4.508,6.285 -4.23,5.674 C -4.695,5.255 -5.199,4.862 -5.821,4.426 L -7.572,3.166 C -8.211,2.714 -8.726,2.37 -9.28,2.063 L -9.769,2.542 -10.137,2.264 C -9.879,1.918 -9.621,1.577 -9.369,1.21 -9.135,0.858 -8.896,0.503 -8.634,0.138 l 0.382,0.283 -0.3,0.624 c 1.012,0.837 2.524,1.914 3.719,2.791 l 0.012,-0.01 c -0.76,-1.944 -1.466,-3.962 -2.241,-6.014 0.18,-0.214 0.364,-0.451 0.53,-0.685 0.177,-0.211 0.323,-0.469 0.442,-0.648 0.565,0.462 1.312,1.019 2.167,1.66 l 1.689,1.233 c 0.644,0.446 1.179,0.787 1.73,1.111 z"
             style="fill:#006dae;fill-opacity:1;fill-rule:nonzero;stroke:none"
             id="path372" /></g><g
           id="g374"
           transform="translate(112.7641,132.7434)"><path
             d="m 0,0 c -1.718,-1.543 -1.523,-3.859 -0.179,-5.309 0.923,-0.998 1.935,-1.603 3.626,-1.739 l 0.129,0.866 c -0.985,0.134 -1.677,0.525 -2.12,1.045 -1.038,1.126 -1.1,2.724 0.16,3.902 1.269,1.183 2.641,0.788 3.462,-0.087 0.389,-0.411 0.713,-1.091 0.837,-1.673 L 5.526,-3.456 5.872,-3.859 c 0.417,0.372 1.056,0.734 1.577,0.923 C 7.08,-2.042 6.645,-1.369 5.995,-0.679 4.208,1.233 1.72,1.614 0,0"
             style="fill:#006dae;fill-opacity:1;fill-rule:nonzero;stroke:none"
             id="path376" /></g><g
           id="g378"
           transform="translate(126.3857,119.7825)"><path
             d="M 0,0 C -1.027,-1.22 -2.468,-1.591 -3.557,-0.692 -4.642,0.203 -4.54,1.676 -3.495,2.897 -2.45,4.135 -1.015,4.503 0.06,3.593 1.085,2.704 0.977,1.237 0,0 M 0.675,4.396 C -1.339,6.117 -3.69,5.835 -5.066,4.198 -6.584,2.316 -6.228,0.212 -4.221,-1.485 c 2.088,-1.724 4.393,-1.438 5.725,0.208 1.61,1.862 1.235,3.978 -0.829,5.673"
             style="fill:#006dae;fill-opacity:1;fill-rule:nonzero;stroke:none"
             id="path380" /></g><g
           id="g382"
           transform="translate(137.1303,114.4407)"><path
             d="m 0,0 c -0.466,-0.729 -1.203,-0.701 -2.104,-0.14 -0.216,0.123 -0.393,0.262 -0.535,0.392 l 0.319,0.522 c 0.336,0.529 0.643,0.973 0.852,1.238 0.279,-0.111 0.487,-0.23 0.897,-0.478 C 0.19,1.068 0.346,0.559 0,0 m 0.523,2.001 c -0.435,0.27 -0.891,0.53 -1.338,0.793 -0.454,0.273 -0.903,0.519 -1.338,0.788 -0.365,0.23 -0.733,0.491 -1.108,0.73 L -3.517,3.901 -3.007,3.435 C -3.291,2.862 -3.603,2.325 -4.026,1.668 L -5.07,-0.14 c -0.424,-0.639 -0.78,-1.144 -1.18,-1.655 l -0.64,0.254 -0.252,-0.411 c 0.504,-0.301 0.995,-0.589 1.486,-0.897 0.479,-0.286 0.942,-0.614 1.389,-0.927 l 0.241,0.406 -0.463,0.458 c 0.241,0.572 0.546,1.134 0.972,1.79 l 0.362,0.566 0.471,-0.3 c 0.119,-1.102 0.235,-2.951 0.309,-4.265 0.676,-0.321 1.38,-0.668 2.028,-1.082 l 0.255,0.4 -0.209,0.289 c -0.121,0.508 -0.473,3.147 -0.582,3.876 1.02,-0.434 2.076,-0.26 2.603,0.627 0.516,0.844 0.53,1.907 -1.197,3.012"
             style="fill:#006dae;fill-opacity:1;fill-rule:nonzero;stroke:none"
             id="path384" /></g><g
           id="g386"
           transform="translate(146.3798,107.5042)"><path
             d="M 0,0 -1.627,0.741 0.277,2.871 0.3,2.862 Z m 2.153,3.141 -0.55,0.45 C 1.085,3.659 0.569,3.728 0.011,3.864 -1.475,2.287 -3.751,-0.089 -4.944,-1.039 l -0.603,0.134 -0.188,-0.438 c 0.361,-0.162 0.741,-0.306 1.106,-0.475 0.417,-0.186 0.863,-0.404 1.276,-0.603 l 0.215,0.438 -0.523,0.369 1.461,1.697 2.107,-0.971 c -0.03,-0.644 -0.173,-1.634 -0.289,-2.238 L -1.02,-2.975 -1.211,-3.4 c 0.54,-0.242 1.088,-0.453 1.628,-0.697 0.49,-0.234 1.005,-0.484 1.516,-0.723 l 0.19,0.437 -0.503,0.372 c -0.029,0.676 0.098,2.689 0.239,4.142 z"
             style="fill:#006dae;fill-opacity:1;fill-rule:nonzero;stroke:none"
             id="path388" /></g><g
           id="g390"
           transform="translate(169.6415,104.9407)"><path
             d="m 0,0 c -0.316,0.554 -0.577,1.113 -0.86,1.827 l -0.837,1.925 c -0.317,0.724 -0.55,1.297 -0.747,1.897 l 0.583,0.385 -0.205,0.439 C -2.6,6.228 -3.12,5.979 -3.638,5.762 -4.171,5.532 -4.704,5.328 -5.245,5.091 l 0.202,-0.423 0.677,0.151 c 0.31,-0.554 0.59,-1.116 0.912,-1.829 L -2.6,1.049 c 0.319,-0.707 0.534,-1.28 0.746,-1.886 l -0.567,-0.384 0.185,-0.436 c 0.546,0.244 1.057,0.493 1.548,0.722 0.478,0.229 1.02,0.432 1.564,0.656 L 0.673,0.153 Z"
             style="fill:#006dae;fill-opacity:1;fill-rule:nonzero;stroke:none"
             id="path392" /></g><g
           id="g394"
           transform="translate(182.9409,112.1682)"><path
             d="m 0,0 c -0.385,0.524 -0.731,1.045 -1.14,1.702 l -1.029,1.829 c -0.404,0.651 -0.7,1.198 -0.967,1.77 l 0.522,0.458 -0.255,0.415 C -3.298,5.892 -3.728,5.613 -4.174,5.361 -4.604,5.104 -5.07,4.852 -5.515,4.598 -5.262,3.644 -4.524,-0.013 -4.37,-0.779 -5.2,-0.209 -7.873,2.081 -8.555,2.748 -8.99,2.477 -9.425,2.207 -9.845,1.951 -10.28,1.694 -10.738,1.46 -11.18,1.204 l 0.25,-0.397 0.6,0.203 0.525,-0.862 c 0.509,-0.864 2.104,-3.699 2.496,-4.502 l -0.501,-0.458 0.238,-0.399 c 0.374,0.22 0.733,0.458 1.105,0.678 0.377,0.235 0.767,0.438 1.156,0.648 l -0.246,0.409 -0.65,-0.244 c -0.383,0.513 -0.733,1.038 -1.145,1.706 l -0.601,1.04 c -0.501,0.907 -0.872,1.546 -1.048,1.867 l 0.016,0.013 c 2.678,-2.26 4.139,-3.438 4.866,-4.079 l 1.001,0.591 -1.277,6.256 0.012,0.008 c 0.209,-0.307 0.612,-0.944 1.152,-1.845 l 0.628,-1.03 C -2.193,0.132 -1.924,-0.422 -1.689,-1 l -0.447,-0.441 0.212,-0.423 c 0.437,0.305 0.924,0.606 1.428,0.908 0.496,0.292 1.011,0.572 1.511,0.869 L 0.781,0.32 Z"
             style="fill:#006dae;fill-opacity:1;fill-rule:nonzero;stroke:none"
             id="path396" /></g><g
           id="g398"
           transform="translate(190.1147,117.4807)"><path
             d="m 0,0 c -0.444,0.467 -0.868,0.931 -1.37,1.54 l -0.972,1.189 c -0.412,0.489 -0.876,1.156 -1.24,1.707 0.124,0.196 0.339,0.43 0.567,0.646 0.734,0.599 1.453,0.531 1.94,-0.076 C -0.567,4.408 -0.438,3.674 -1.179,3.072 -1.34,2.949 -1.5,2.838 -1.651,2.766 l 0.355,-0.91 c 0.314,0.163 0.645,0.392 0.946,0.63 C 1.234,3.754 1.275,5.36 0.405,6.425 -0.424,7.432 -1.59,7.518 -2.892,6.456 -3.146,6.19 -3.509,5.884 -3.974,5.503 -4.415,5.103 -4.854,4.759 -5.197,4.49 -5.533,4.226 -5.957,3.905 -6.4,3.539 l 0.301,-0.368 0.607,0.324 c 0.448,-0.449 0.863,-0.916 1.369,-1.508 l 1.255,-1.655 c 0.504,-0.602 0.869,-1.102 1.232,-1.625 l -0.442,-0.522 0.298,-0.377 c 0.447,0.386 0.877,0.755 1.336,1.116 0.435,0.348 0.899,0.684 1.587,1.225 L 0.827,0.518 Z"
             style="fill:#006dae;fill-opacity:1;fill-rule:nonzero;stroke:none"
             id="path400" /></g><g
           id="g402"
           transform="translate(196.2905,127.012)"><path
             d="M 0,0 -1.357,2.53 -1.349,2.557 1.266,1.292 Z M 5.57,1.437 C 4.92,1.646 3.036,2.419 1.77,3.06 L -1.001,4.373 -1.604,4.008 C -1.847,3.563 -2.098,3.095 -2.408,2.604 -1.417,0.685 0.049,-2.29 0.567,-3.731 L 0.229,-4.234 0.583,-4.562 c 0.259,0.279 0.524,0.591 0.813,0.857 0.319,0.332 0.675,0.668 1.005,1.005 L 2.063,-2.365 1.534,-2.74 0.42,-0.793 2.087,0.914 C 2.686,0.669 3.508,0.186 4.037,-0.12 l -0.359,-0.542 0.35,-0.341 c 0.406,0.428 0.798,0.868 1.204,1.287 0.404,0.401 0.804,0.789 1.209,1.169 L 6.085,1.786 Z"
             style="fill:#006dae;fill-opacity:1;fill-rule:nonzero;stroke:none"
             id="path404" /></g><g
           id="g406"
           transform="translate(204.6069,137.3948)"><path
             d="m 0,0 c -0.162,-0.186 -0.316,-0.357 -0.456,-0.482 l -0.492,0.359 c -0.489,0.365 -0.914,0.722 -1.166,0.935 0.15,0.265 0.279,0.461 0.56,0.843 0.54,0.7 1.074,0.824 1.589,0.414 C 0.661,1.543 0.615,0.822 0,0 M 5.507,1.251 C 4.998,1.191 2.283,1.079 1.545,1.054 2.075,2.009 2,3.081 1.152,3.722 0.424,4.322 -0.635,4.427 -1.918,2.789 -2.231,2.373 -2.549,1.946 -2.849,1.524 -3.162,1.102 -3.459,0.698 -3.76,0.307 -4.042,-0.044 -4.323,-0.388 -4.598,-0.724 l 0.391,-0.289 0.511,0.469 c 0.551,-0.35 1.055,-0.695 1.691,-1.177 l 1.699,-1.275 C 0.326,-3.46 0.735,-3.873 1.202,-4.311 L 0.878,-4.924 1.269,-5.211 c 0.339,0.464 0.684,0.931 1.027,1.393 0.345,0.451 0.72,0.879 1.079,1.337 L 2.979,-2.195 2.488,-2.653 c -0.556,0.323 -1.069,0.684 -1.704,1.15 l -0.467,0.42 0.309,0.453 C 1.7,-0.609 3.578,-0.679 4.929,-0.724 5.298,-0.094 5.711,0.562 6.196,1.15 L 5.81,1.437 Z"
             style="fill:#006dae;fill-opacity:1;fill-rule:nonzero;stroke:none"
             id="path408" /></g><g
           id="g410"
           transform="translate(214.8046,146.594)"><path
             d="m 0,0 c -0.712,-1.208 -2.184,-1.345 -3.525,-0.521 -1.398,0.81 -1.999,2.154 -1.277,3.366 0.726,1.19 2.137,1.317 3.527,0.52 C 0.117,2.562 0.724,1.196 0,0 m -0.228,5.106 c -2.161,1.252 -4.113,0.552 -5.477,-1.741 -1.373,-2.321 -0.697,-4.556 1.154,-5.631 2.047,-1.239 4.111,-0.552 5.478,1.745 1.371,2.298 0.707,4.542 -1.155,5.627"
             style="fill:#006dae;fill-opacity:1;fill-rule:nonzero;stroke:none"
             id="path412" /></g><g
           id="g414"
           transform="translate(157.1806,105.8665)"><path
             d="m 0,0 c -0.829,0 -1.56,-0.744 -1.56,-1.632 0,-0.921 0.731,-1.683 1.56,-1.683 0.927,0 1.685,0.762 1.685,1.683 C 1.685,-0.744 0.927,0 0,0"
             style="fill:#006dae;fill-opacity:1;fill-rule:nonzero;stroke:none"
             id="path416" /></g><g
           id="g418"
           transform="translate(96.5786,157.6956)"><path
             d="M 0,0 C 0.89,0 1.646,0.759 1.646,1.634 1.646,2.553 0.89,3.317 0,3.317 -0.874,3.317 -1.616,2.553 -1.616,1.634 -1.616,0.759 -0.874,0 0,0"
             style="fill:#006dae;fill-opacity:1;fill-rule:nonzero;stroke:none"
             id="path420" /></g><g
           id="g422"
           transform="translate(218.1269,157.6956)"><path
             d="M 0,0 C 0.915,0 1.667,0.759 1.667,1.634 1.667,2.553 0.915,3.317 0,3.317 -0.845,3.317 -1.616,2.553 -1.616,1.634 -1.616,0.759 -0.845,0 0,0"
             style="fill:#006dae;fill-opacity:1;fill-rule:nonzero;stroke:none"
             id="path424" /></g></g></g></g></svg>
